Coordinates
version=1
nRows=4
nColumns=107
inDegrees=yes

Units are S.I. units (second, meters, Newtons, ...)
If the header above contains a line with 'inDegrees', this indicates whether rotational values are in degrees (yes) or radians (no).

endheader
time	sternoclavicular_r2	sternoclavicular_r3	unrotscap_r3	unrotscap_r2	acromioclavicular_r2	acromioclavicular_r3	acromioclavicular_r1	unrothum_r1	unrothum_r3	unrothum_r2	elv_angle	shoulder_elv	shoulder1_r2	shoulder_rot	elbow_flexion	pro_sup	deviation	flexion	proximal_distal_r1	proximal_distal_r3	cmc_flexion	cmc_abduction	mp_flexion	ip_flexion	mcp2_flexion	mcp2_abduction	pm2_flexion	md2_flexion	mcp3_flexion	mcp3_abduction	pm3_flexion	md3_flexion	mcp4_flexion	mcp4_abduction	pm4_flexion	md4_flexion	mcp5_flexion	mcp5_abduction	pm5_flexion	md5_flexion	bicpt_tx	bicpt_ty	bicpt_tz	bicpt2_tx	bicpt2_ty	bicpt2_tz	ptpt_tx	ptpt_ty	ptpt_tz	FCUpt_tx	FCUpt_ty	FCUpt_tz	EDCpt_tx	EDCpt_ty	EDCpt_tz	APLpt_tx	APLpt_ty	APLpt_tz	FPLpt_tx	FPLpt_ty	FPLpt_tz	FPLpt2_tx	FPLpt2_ty	FPLpt2_tz	PEC1pt2_tx	PEC1pt2_ty	PEC1pt2_tz	PEC1pt3_tx	PEC1pt3_ty	PEC1pt3_tz	PEC2pt2_tx	PEC2pt2_ty	PEC2pt2_tz	PEC2pt3_tx	PEC2pt3_ty	PEC2pt3_tz	PEC3pt2_tx	PEC3pt2_ty	PEC3pt2_tz	PEC3pt3_tx	PEC3pt3_ty	PEC3pt3_tz	DELT2pt2a_tx	DELT2pt2a_ty	DELT2pt2a_tz	DELT2pt2_tx	DELT2pt2_ty	DELT2pt2_tz	LAT1pt2_tx	LAT1pt2_ty	LAT1pt2_tz	LAT1pt3_tx	LAT1pt3_ty	LAT1pt3_tz	LAT2pt2_tx	LAT2pt2_ty	LAT2pt2_tz	LAT2pt3_tx	LAT2pt3_ty	LAT2pt3_tz	LAT3pt2_tx	LAT3pt2_ty	LAT3pt2_tz	LAT3pt3_tx	LAT3pt3_ty	LAT3pt3_tz
      0.43333333	     -0.32886557	      0.13929193	     -0.13929193	      0.32886557	     -0.06658859	      0.53814555	      0.24189272	     -0.24189272	     -0.53814555	      0.06658859	     98.28693835	     77.86184708	     -1.71543069	    -17.75545210	     28.70795443	     41.72559750	      0.24205394	      0.03644654	      0.28054485	      0.01822327	     31.78533899	    -18.08052295	     11.92968807	      6.64254373	     -3.37100924	     12.86938745	     12.29333640	    -22.21182368	     -9.28466854	      3.46201291	      9.53750234	     11.66146808	    -14.16757875	      1.77522946	      3.45909805	     20.97982861	    -23.47010981	    -14.03753157	      7.20240794	      5.18386655	      0.00084957	     -0.03089037	     -0.00482999	      0.01657422	     -0.01799866	     -0.00728373	      0.00446695	     -0.06689355	     -0.00341122	      0.00795443	     -0.18345874	     -0.00039755	     -0.00500706	      0.00145090	      0.00013323	     -0.00003840	     -0.00001536	     -0.00007680	     -0.00004915	     -0.00014746	     -0.00008295	     -0.00001066	     -0.00023335	     -0.00028002	      0.00255214	      0.00895412	      0.00622895	     -0.00834853	      0.02015758	     -0.01911943	      0.00255214	      0.00895412	      0.00622895	      0.00056234	      0.01868686	     -0.00981925	      0.00401157	      0.00497927	      0.01612108	      0.00000000	      0.00811030	      0.00000000	     -0.00731037	     -0.03378342	     -0.00668911	      0.01244734	     -0.00036402	     -0.00255949	     -0.00090839	      0.01522633	     -0.00622895	      0.00250888	      0.02197436	     -0.01816778	     -0.00609918	      0.01319327	     -0.00558010	     -0.01271745	      0.02785726	     -0.03118802	     -0.02387765	      0.01475051	     -0.00748339	     -0.01583192	      0.03218292	     -0.03897421
      0.46666667	     -0.32629858	      0.13820468	     -0.13820468	      0.32629858	     -0.06606882	      0.53394500	      0.24000460	     -0.24000460	     -0.53394500	      0.06606882	     98.75786136	     77.25408862	     -1.72364984	    -20.83213131	     29.13170379	     46.57381923	      0.25120561	      0.10132205	      0.28927026	      0.05066102	     32.96510963	    -18.82479642	     10.64215651	      7.97572666	     -4.92437979	     12.91156893	     12.25640076	    -18.97005480	     -9.99022395	      3.51685287	      9.98307161	     11.69056416	    -14.41223637	      1.76004042	      4.64728623	     18.99760656	    -22.07244773	    -14.02246142	      6.12207739	      5.20801904	      0.00086359	     -0.03093894	     -0.00483782	      0.01653726	     -0.01811377	     -0.00673797	      0.00410872	     -0.06712519	     -0.00380177	      0.00844875	     -0.18335218	     -0.00041681	     -0.00558885	      0.00165433	      0.00008752	     -0.00011226	     -0.00004491	     -0.00022453	     -0.00014370	     -0.00043109	     -0.00024249	     -0.00001170	     -0.00022041	     -0.00026449	      0.00253222	      0.00888423	      0.00618033	     -0.00828336	      0.02000024	     -0.01897019	      0.00253222	      0.00888423	      0.00618033	      0.00055795	      0.01854100	     -0.00974261	      0.00398888	      0.00494041	      0.01606684	      0.00000000	      0.00798326	      0.00000000	     -0.00725331	     -0.03351972	     -0.00658368	      0.01425181	     -0.00045763	     -0.00359248	     -0.00090130	      0.01510748	     -0.00618033	      0.00248930	      0.02180284	     -0.01802597	     -0.00605158	      0.01309029	     -0.00553655	     -0.01261818	      0.02763982	     -0.03094458	     -0.02369127	      0.01463537	     -0.00742498	     -0.01570834	      0.03193172	     -0.03867000
      0.50000000	     -0.32548452	      0.13785988	     -0.13785988	      0.32548452	     -0.06590400	      0.53261291	      0.23940584	     -0.23940584	     -0.53261291	      0.06590400	     98.96782518	     77.06135434	     -1.72731440	    -21.78559627	     28.94478311	     46.28166226	      0.22304506	      0.04366073	      0.26198421	      0.02183037	     32.15897947	    -18.69346211	     11.48740184	      6.00533638	     -4.80512825	     12.75112141	     13.04566482	    -20.12384133	    -10.35967200	      3.22957899	     10.46970111	     13.24836422	    -14.82027023	      1.52338073	      4.16847305	     21.75185205	    -23.10381253	    -14.06020678	      6.88703847	      5.27616581	      0.00085740	     -0.03091751	     -0.00483436	      0.01654101	     -0.01806299	     -0.00677179	      0.00413031	     -0.06711123	     -0.00377824	      0.00841876	     -0.18335879	     -0.00041615	     -0.00555379	      0.00164186	      0.00009063	     -0.00004626	     -0.00001850	     -0.00009252	     -0.00005921	     -0.00017764	     -0.00009992	     -0.00001103	     -0.00022944	     -0.00027533	      0.00252590	      0.00886206	      0.00616491	     -0.00826270	      0.01995035	     -0.01892286	      0.00252590	      0.00886206	      0.00616491	      0.00055655	      0.01849474	     -0.00971830	      0.00398165	      0.00492808	      0.01604946	      0.00000000	      0.00794319	      0.00000000	     -0.00723521	     -0.03343609	     -0.00655042	      0.01478532	     -0.00048740	     -0.00394288	     -0.00089905	      0.01506979	     -0.00616491	      0.00248309	      0.02174845	     -0.01798100	     -0.00603648	      0.01305763	     -0.00552274	     -0.01258670	      0.02757086	     -0.03086738	     -0.02363217	      0.01459886	     -0.00740646	     -0.01566916	      0.03185205	     -0.03857352
      0.53333333	     -0.33009421	      0.13981233	     -0.13981233	      0.33009421	     -0.06683736	      0.54015605	      0.24279643	     -0.24279643	     -0.54015605	      0.06683736	     98.11249935	     78.15273753	     -1.71238615	    -16.28106655	     28.46890223	     40.34517803	      0.25144696	      0.02128058	      0.28949909	      0.01064029	     31.35756262	    -18.09143337	     12.35624027	      5.22518021	     -3.06909539	     12.87904908	     13.01006704	    -21.84768140	     -8.91028927	      3.36266529	      9.65837578	     12.63949558	    -14.06458949	      1.54384243	      4.28836620	     22.66623422	    -23.30740824	    -14.05167894	      8.02428135	      5.19716129	      0.00084166	     -0.03086297	     -0.00482558	      0.01657492	     -0.01793372	     -0.00743310	      0.00456895	     -0.06682760	     -0.00330002	      0.00781501	     -0.18348787	     -0.00038883	     -0.00484141	      0.00139430	      0.00014391	     -0.00002215	     -0.00000886	     -0.00004430	     -0.00002835	     -0.00008505	     -0.00004784	     -0.00001021	     -0.00023767	     -0.00028520	      0.00256168	      0.00898757	      0.00625222	     -0.00837972	      0.02023289	     -0.01919086	      0.00256168	      0.00898757	      0.00625222	      0.00056444	      0.01875667	     -0.00985594	      0.00402239	      0.00499787	      0.01614673	      0.00000000	      0.00817147	      0.00000000	     -0.00733768	     -0.03390963	     -0.00673986	      0.01153775	     -0.00032056	     -0.00211953	     -0.00091178	      0.01528321	     -0.00625222	      0.00251826	      0.02205646	     -0.01823565	     -0.00612197	      0.01324256	     -0.00560095	     -0.01276496	      0.02796134	     -0.03130454	     -0.02396686	      0.01480561	     -0.00751135	     -0.01589107	      0.03230316	     -0.03911982
